<svg xmlns="http://www.w3.org/2000/svg" xmlns:xlink="http://www.w3.org/1999/xlink" width="500" zoomAndPan="magnify" viewBox="0 0 375 374.999991" height="500" preserveAspectRatio="xMidYMid meet" version="1.0"><defs><clipPath id="bf48dd1ba0"><path d="M 53 33.863281 L 335 33.863281 L 335 315 L 53 315 Z M 53 33.863281 " clip-rule="nonzero"/></clipPath><clipPath id="09d3c7f9ed"><path d="M 88.003906 68.527344 L 299.503906 68.527344 L 299.503906 280.027344 L 88.003906 280.027344 Z M 88.003906 68.527344 " clip-rule="nonzero"/></clipPath></defs><g clip-path="url(#bf48dd1ba0)"><path fill="#c4dbeb" d="M 330.113281 174.410156 C 330.113281 159.746094 337.417969 144.175781 332.921875 130.972656 C 328.316406 117.257812 312.691406 108.828125 304.09375 97.421875 C 295.382812 85.902344 291.785156 69.097656 279.816406 60.726562 C 267.960938 52.464844 250.257812 54.320312 236.039062 49.824219 C 222.269531 45.550781 209.175781 33.863281 193.949219 33.863281 C 178.71875 33.863281 165.566406 45.496094 151.855469 49.824219 C 137.636719 54.261719 119.878906 52.40625 108.023438 60.726562 C 96.050781 69.097656 92.457031 85.902344 83.746094 97.421875 C 75.089844 108.828125 59.523438 117.257812 54.859375 130.972656 C 50.421875 144.175781 57.667969 159.746094 57.667969 174.410156 C 57.667969 189.078125 50.363281 204.644531 54.859375 217.851562 C 59.46875 231.5625 75.089844 239.992188 83.6875 251.402344 C 92.398438 262.921875 95.996094 279.726562 107.964844 288.097656 C 119.824219 296.414062 137.527344 294.5625 151.800781 299 C 165.566406 303.269531 178.660156 314.960938 193.890625 314.960938 C 209.121094 314.960938 222.269531 303.328125 235.984375 299 C 250.199219 294.5625 267.960938 296.414062 279.816406 288.097656 C 291.785156 279.726562 295.382812 262.921875 304.09375 251.402344 C 312.746094 239.992188 328.316406 231.5625 332.921875 217.851562 C 337.417969 204.589844 330.113281 189.023438 330.113281 174.410156 Z M 330.113281 174.410156 " fill-opacity="1" fill-rule="nonzero"/></g><path fill="#32393f" d="M 162.34375 85.113281 L 162.34375 102.0625 C 155.5625 103.761719 149.539062 106.289062 143.960938 109.515625 L 131.972656 97.523438 L 104.558594 124.933594 L 116.550781 136.921875 C 113.324219 142.5 110.800781 148.527344 109.101562 154.890625 L 92.152344 154.890625 L 92.152344 193.660156 L 109.101562 193.660156 C 110.800781 200.023438 113.324219 206.050781 116.550781 211.628906 L 104.558594 223.617188 L 131.972656 251.027344 L 143.960938 239.035156 C 149.539062 242.261719 155.5625 244.789062 162.34375 246.488281 L 162.34375 263.4375 L 185.191406 263.4375 L 185.191406 238.554688 L 188.777344 235.375 L 185.191406 232.203125 L 156.707031 174.277344 L 185.191406 116.347656 L 188.777344 109.304688 L 185.191406 105.847656 L 185.191406 85.113281 Z M 162.34375 85.113281 " fill-opacity="1" fill-rule="nonzero"/><path fill="#697c84" d="M 185.191406 116.40625 L 208.40625 169.632812 L 185.191406 232.257812 C 184.464844 232.347656 182.613281 232.390625 181.3125 232.390625 C 149.246094 232.390625 123.253906 206.398438 123.253906 174.332031 C 123.253906 142.269531 149.246094 116.273438 181.3125 116.273438 C 182.613281 116.273438 184.464844 116.320312 185.191406 116.40625 Z M 185.191406 116.40625 " fill-opacity="1" fill-rule="nonzero"/><path fill="#2ee5a7" d="M 185.191406 105.847656 C 185.191406 111.355469 185.191406 233.695312 185.191406 238.554688 C 194.460938 238.554688 253.011719 238.554688 262.179688 238.554688 C 262.179688 222.664062 262.179688 121.4375 262.179688 105.847656 C 259.773438 105.847656 186.871094 105.847656 185.191406 105.847656 Z M 185.191406 105.847656 " fill-opacity="1" fill-rule="nonzero"/><path fill="#000000" d="M 215.390625 149.523438 C 205.671875 149.523438 197.765625 157.429688 197.765625 167.148438 L 197.765625 190.863281 C 197.765625 193.152344 199.625 195.011719 201.914062 195.011719 C 204.203125 195.011719 206.058594 193.152344 206.058594 190.863281 L 206.058594 180.496094 L 224.722656 180.496094 L 224.722656 190.863281 C 224.722656 193.152344 226.578125 195.011719 228.871094 195.011719 C 231.160156 195.011719 233.015625 193.152344 233.015625 190.863281 L 233.015625 167.148438 C 233.015625 157.40625 225.132812 149.523438 215.390625 149.523438 Z M 206.058594 172.203125 L 206.058594 167.148438 C 206.058594 162 210.246094 157.816406 215.390625 157.816406 C 220.546875 157.816406 224.722656 161.992188 224.722656 167.148438 L 224.722656 172.203125 Z M 206.058594 172.203125 " fill-opacity="1" fill-rule="nonzero"/><path fill="#000000" d="M 245.457031 149.394531 C 243.167969 149.394531 241.308594 151.25 241.308594 153.539062 L 241.308594 190.863281 C 241.308594 193.152344 243.167969 195.011719 245.457031 195.011719 C 247.746094 195.011719 249.605469 193.152344 249.605469 190.863281 L 249.605469 153.539062 C 249.605469 151.25 247.746094 149.394531 245.457031 149.394531 Z M 245.457031 149.394531 " fill-opacity="1" fill-rule="nonzero"/><g clip-path="url(#09d3c7f9ed)"><path fill="#000000" d="M 295.355469 168.054688 L 266.328125 168.054688 C 266.328125 165.535156 266.328125 162.226562 266.328125 159.761719 L 287.0625 159.761719 C 289.351562 159.761719 291.210938 157.902344 291.210938 155.613281 L 291.210938 145.246094 C 291.210938 142.957031 289.351562 141.097656 287.0625 141.097656 C 284.773438 141.097656 282.914062 142.957031 282.914062 145.246094 L 282.914062 151.464844 L 266.328125 151.464844 L 266.328125 105.847656 C 266.328125 103.558594 264.46875 101.703125 262.179688 101.703125 L 249.738281 101.703125 L 249.738281 85.113281 L 255.960938 85.113281 C 258.25 85.113281 260.105469 83.257812 260.105469 80.964844 C 260.105469 78.675781 258.25 76.820312 255.960938 76.820312 L 245.59375 76.820312 C 243.300781 76.820312 241.445312 78.675781 241.445312 80.964844 L 241.445312 101.703125 L 233.152344 101.703125 L 233.152344 72.671875 C 233.152344 70.382812 231.292969 68.527344 229.003906 68.527344 C 226.714844 68.527344 224.855469 70.382812 224.855469 72.671875 L 224.855469 101.703125 L 216.5625 101.703125 L 216.5625 80.964844 C 216.5625 78.675781 214.707031 76.820312 212.414062 76.820312 L 202.046875 76.820312 C 199.757812 76.820312 197.902344 78.675781 197.902344 80.964844 C 197.902344 83.257812 199.757812 85.113281 202.046875 85.113281 L 208.269531 85.113281 L 208.269531 101.703125 L 189.335938 101.703125 L 189.335938 85.113281 C 189.335938 82.824219 187.480469 80.964844 185.191406 80.964844 L 162.34375 80.964844 C 160.054688 80.964844 158.195312 82.824219 158.195312 85.113281 L 158.195312 98.898438 C 153.496094 100.285156 149.035156 102.097656 144.6875 104.378906 L 134.902344 94.589844 C 133.285156 92.96875 130.660156 92.96875 129.039062 94.589844 L 101.625 122 C 100.007812 123.621094 100.007812 126.246094 101.625 127.867188 L 111.414062 137.652344 C 109.207031 141.851562 107.390625 146.234375 105.984375 150.746094 L 92.152344 150.746094 C 89.859375 150.746094 88.003906 152.601562 88.003906 154.890625 L 88.003906 193.660156 C 88.003906 195.949219 89.859375 197.804688 92.152344 197.804688 L 105.984375 197.804688 C 107.390625 202.316406 109.207031 206.699219 111.414062 210.898438 L 101.628906 220.683594 C 100.007812 222.304688 100.007812 224.929688 101.625 226.550781 L 129.039062 253.960938 C 130.660156 255.582031 133.285156 255.582031 134.90625 253.960938 L 144.6875 244.171875 C 149.035156 246.453125 153.496094 248.265625 158.199219 249.65625 L 158.199219 263.4375 C 158.199219 265.726562 160.054688 267.585938 162.34375 267.585938 L 185.191406 267.585938 C 187.480469 267.585938 189.335938 265.726562 189.335938 263.4375 L 189.335938 242.703125 L 208.269531 242.703125 L 208.269531 259.289062 L 202.046875 259.289062 C 199.757812 259.289062 197.902344 261.148438 197.902344 263.4375 C 197.902344 265.726562 199.757812 267.585938 202.046875 267.585938 L 212.414062 267.585938 C 214.707031 267.585938 216.5625 265.726562 216.5625 263.4375 L 216.5625 242.703125 L 224.855469 242.703125 L 224.855469 275.878906 C 224.855469 278.167969 226.714844 280.027344 229.003906 280.027344 C 231.292969 280.027344 233.152344 278.167969 233.152344 275.878906 L 233.152344 242.703125 L 241.445312 242.703125 L 241.445312 263.4375 C 241.445312 265.726562 243.300781 267.585938 245.59375 267.585938 L 255.960938 267.585938 C 258.25 267.585938 260.105469 265.726562 260.105469 263.4375 C 260.105469 261.148438 258.25 259.289062 255.960938 259.289062 L 249.738281 259.289062 L 249.738281 242.703125 L 262.179688 242.703125 C 264.46875 242.703125 266.328125 240.84375 266.328125 238.554688 C 266.328125 234.21875 266.328125 199.660156 266.328125 192.9375 L 282.914062 192.9375 L 282.914062 199.15625 C 282.914062 201.449219 284.773438 203.304688 287.0625 203.304688 C 289.351562 203.304688 291.210938 201.449219 291.210938 199.15625 L 291.210938 188.789062 C 291.210938 186.5 289.351562 184.644531 287.0625 184.644531 L 266.328125 184.644531 C 266.328125 182.125 266.328125 178.816406 266.328125 176.347656 L 295.355469 176.347656 C 297.648438 176.347656 299.503906 174.492188 299.503906 172.203125 C 299.503906 169.910156 297.648438 168.054688 295.355469 168.054688 Z M 181.042969 228.183594 C 151.441406 228.039062 127.402344 203.914062 127.402344 174.277344 C 127.402344 144.636719 151.441406 120.511719 181.042969 120.367188 Z M 181.042969 112.074219 C 146.867188 112.21875 119.105469 140.066406 119.105469 174.277344 C 119.105469 208.484375 146.867188 236.332031 181.042969 236.476562 C 181.042969 242.210938 181.042969 256.417969 181.042969 259.289062 L 166.492188 259.289062 L 166.492188 246.488281 C 166.492188 244.585938 165.199219 242.929688 163.351562 242.464844 C 157.199219 240.921875 151.535156 238.625 146.035156 235.445312 C 144.410156 234.507812 142.355469 234.777344 141.027344 236.105469 L 131.972656 245.164062 L 110.425781 223.617188 L 119.484375 214.5625 C 120.8125 213.234375 121.082031 211.179688 120.140625 209.550781 C 117.054688 204.214844 114.6875 198.507812 113.105469 192.589844 C 112.621094 190.773438 110.980469 189.511719 109.101562 189.511719 L 96.296875 189.511719 L 96.296875 159.039062 L 109.101562 159.039062 C 110.976562 159.039062 112.621094 157.777344 113.105469 155.964844 C 114.6875 150.046875 117.054688 144.335938 120.140625 139 C 121.082031 137.375 120.8125 135.320312 119.484375 133.992188 L 110.425781 124.933594 L 131.96875 103.386719 L 141.027344 112.445312 C 142.355469 113.777344 144.410156 114.046875 146.035156 113.105469 C 151.535156 109.925781 157.199219 107.628906 163.351562 106.085938 C 165.199219 105.621094 166.492188 103.964844 166.492188 102.0625 L 166.492188 89.261719 L 181.042969 89.261719 C 181.042969 94.597656 181.042969 106.71875 181.042969 112.074219 Z M 258.035156 234.40625 L 189.335938 234.40625 L 189.335938 109.996094 L 258.035156 109.996094 Z M 258.035156 234.40625 " fill-opacity="1" fill-rule="nonzero"/></g></svg>