<svg xmlns="http://www.w3.org/2000/svg" xmlns:xlink="http://www.w3.org/1999/xlink" width="500" zoomAndPan="magnify" viewBox="0 0 375 374.999991" height="500" preserveAspectRatio="xMidYMid meet" version="1.0"><defs><clipPath id="3f1130b92c"><path d="M 53 33.863281 L 335 33.863281 L 335 315 L 53 315 Z M 53 33.863281 " clip-rule="nonzero"/></clipPath></defs><g clip-path="url(#3f1130b92c)"><path fill="#c4dbeb" d="M 330.113281 174.410156 C 330.113281 159.746094 337.417969 144.175781 332.921875 130.972656 C 328.316406 117.257812 312.691406 108.828125 304.09375 97.421875 C 295.382812 85.902344 291.785156 69.097656 279.816406 60.726562 C 267.960938 52.464844 250.257812 54.320312 236.039062 49.824219 C 222.269531 45.550781 209.175781 33.863281 193.949219 33.863281 C 178.71875 33.863281 165.566406 45.496094 151.855469 49.824219 C 137.636719 54.261719 119.878906 52.40625 108.023438 60.726562 C 96.050781 69.097656 92.457031 85.902344 83.746094 97.421875 C 75.089844 108.828125 59.523438 117.257812 54.859375 130.972656 C 50.421875 144.175781 57.667969 159.746094 57.667969 174.410156 C 57.667969 189.078125 50.363281 204.644531 54.859375 217.851562 C 59.46875 231.5625 75.089844 239.992188 83.6875 251.402344 C 92.398438 262.921875 95.996094 279.726562 107.964844 288.097656 C 119.824219 296.414062 137.527344 294.5625 151.800781 299 C 165.566406 303.269531 178.660156 314.960938 193.890625 314.960938 C 209.121094 314.960938 222.269531 303.328125 235.984375 299 C 250.199219 294.5625 267.960938 296.414062 279.816406 288.097656 C 291.785156 279.726562 295.382812 262.921875 304.09375 251.402344 C 312.746094 239.992188 328.316406 231.5625 332.921875 217.851562 C 337.417969 204.589844 330.113281 189.023438 330.113281 174.410156 Z M 330.113281 174.410156 " fill-opacity="1" fill-rule="nonzero"/></g><path fill="#000000" d="M 256.957031 126.386719 L 256.964844 126.386719 L 256.964844 126.347656 Z M 256.957031 126.386719 " fill-opacity="1" fill-rule="nonzero"/><path fill="#f2bb30" d="M 282.167969 232.542969 C 299.1875 232.542969 305.480469 220.671875 311.398438 202.875 C 317.527344 184.546875 317.261719 166.914062 311.398438 143.4375 C 307.175781 126.53125 299.199219 113.769531 282.167969 113.769531 L 260.234375 113.769531 L 260.234375 139.730469 C 260.234375 159.867188 243.152344 176.835938 223.683594 176.835938 L 165.226562 176.835938 C 149.238281 176.835938 135.996094 190.515625 135.996094 206.554688 L 135.996094 262.269531 C 135.996094 278.136719 149.789062 287.445312 165.226562 291.988281 C 183.714844 297.402344 201.511719 298.386719 223.671875 291.988281 C 238.394531 287.71875 252.898438 279.117188 252.898438 262.269531 L 252.898438 239.988281 L 194.496094 239.988281 L 194.496094 232.554688 L 282.167969 232.554688 Z M 227.339844 254.824219 C 233.40625 254.824219 238.34375 259.808594 238.34375 265.9375 C 238.34375 272.128906 233.417969 277.105469 227.339844 277.105469 C 221.3125 277.105469 216.335938 272.070312 216.335938 265.9375 C 216.398438 259.746094 221.332031 254.824219 227.339844 254.824219 Z M 227.339844 254.824219 " fill-opacity="1" fill-rule="nonzero"/><path fill="#35668f" d="M 105.890625 232.554688 L 125.976562 232.554688 L 125.976562 205.835938 C 125.976562 186.519531 142.667969 169.488281 162.527344 169.488281 L 220.972656 169.488281 C 237.226562 169.488281 250.203125 156.085938 250.203125 139.769531 L 250.203125 84.011719 C 250.203125 68.144531 236.851562 56.253906 220.972656 53.589844 C 201.378906 50.347656 180.089844 50.535156 162.527344 53.648438 L 162.539062 53.640625 C 137.796875 58.011719 133.320312 67.144531 133.320312 84.050781 L 133.320312 106.332031 L 191.828125 106.332031 L 191.828125 113.78125 L 111.367188 113.78125 C 94.347656 113.78125 79.453125 124.015625 74.8125 143.449219 C 69.449219 165.730469 69.234375 179.625 74.8125 202.886719 C 78.960938 220.179688 88.882812 232.554688 105.890625 232.554688 Z M 158.871094 91.449219 C 152.804688 91.449219 147.867188 86.464844 147.867188 80.332031 C 147.941406 74.144531 152.804688 69.167969 158.871094 69.167969 C 164.898438 69.167969 169.875 74.195312 169.875 80.332031 C 169.875 86.472656 164.949219 91.449219 158.871094 91.449219 Z M 158.871094 91.449219 " fill-opacity="1" fill-rule="nonzero"/></svg>