<svg xmlns="http://www.w3.org/2000/svg" xmlns:xlink="http://www.w3.org/1999/xlink" width="500" zoomAndPan="magnify" viewBox="0 0 375 374.999991" height="500" preserveAspectRatio="xMidYMid meet" version="1.0"><defs><clipPath id="b4c6b4f9d0"><path d="M 53 33.863281 L 335 33.863281 L 335 315 L 53 315 Z M 53 33.863281 " clip-rule="nonzero"/></clipPath><clipPath id="399228abb4"><path d="M 101 81.019531 L 288 81.019531 L 288 267.769531 L 101 267.769531 Z M 101 81.019531 " clip-rule="nonzero"/></clipPath></defs><g clip-path="url(#b4c6b4f9d0)"><path fill="#c4dbeb" d="M 330.113281 174.410156 C 330.113281 159.746094 337.417969 144.175781 332.921875 130.972656 C 328.316406 117.257812 312.691406 108.828125 304.09375 97.421875 C 295.382812 85.902344 291.785156 69.097656 279.816406 60.726562 C 267.960938 52.464844 250.257812 54.320312 236.039062 49.824219 C 222.269531 45.550781 209.175781 33.863281 193.949219 33.863281 C 178.71875 33.863281 165.566406 45.496094 151.855469 49.824219 C 137.636719 54.261719 119.878906 52.40625 108.023438 60.726562 C 96.050781 69.097656 92.457031 85.902344 83.746094 97.421875 C 75.089844 108.828125 59.523438 117.257812 54.859375 130.972656 C 50.421875 144.175781 57.667969 159.746094 57.667969 174.410156 C 57.667969 189.078125 50.363281 204.644531 54.859375 217.851562 C 59.46875 231.5625 75.089844 239.992188 83.6875 251.402344 C 92.398438 262.921875 95.996094 279.726562 107.964844 288.097656 C 119.824219 296.414062 137.527344 294.5625 151.800781 299 C 165.566406 303.269531 178.660156 314.960938 193.890625 314.960938 C 209.121094 314.960938 222.269531 303.328125 235.984375 299 C 250.199219 294.5625 267.960938 296.414062 279.816406 288.097656 C 291.785156 279.726562 295.382812 262.921875 304.09375 251.402344 C 312.746094 239.992188 328.316406 231.5625 332.921875 217.851562 C 337.417969 204.589844 330.113281 189.023438 330.113281 174.410156 Z M 330.113281 174.410156 " fill-opacity="1" fill-rule="nonzero"/></g><g clip-path="url(#399228abb4)"><path fill="#e2ece1" d="M 144.660156 81.019531 L 144.660156 144.652344 L 144.675781 144.652344 C 139.3125 157.511719 139.371094 171.988281 144.660156 184.742188 L 144.660156 208.554688 C 143.347656 207.921875 141.738281 208.191406 140.710938 209.320312 L 103.402344 250.390625 C 99.984375 254.15625 100.285156 259.96875 104.097656 263.375 C 105.859375 264.957031 108.089844 265.722656 110.289062 265.722656 C 112.820312 265.722656 115.351562 264.714844 117.191406 262.695312 L 144.660156 232.441406 L 144.660156 267.769531 L 287.867188 267.769531 L 287.867188 81.019531 Z M 144.660156 81.019531 " fill-opacity="1" fill-rule="nonzero"/></g><path fill="#e2ece1" d="M 155.164062 200.828125 L 146.679688 210.164062 L 145.472656 209.082031 C 145.21875 208.855469 144.945312 208.6875 144.660156 208.554688 L 144.660156 184.742188 C 147.070312 190.554688 150.582031 196.023438 155.164062 200.828125 Z M 155.164062 200.828125 " fill-opacity="1" fill-rule="nonzero"/><path fill="#e15c63" d="M 256.300781 202.046875 L 265.070312 202.046875 L 265.070312 253.78125 L 256.300781 253.78125 Z M 256.300781 202.046875 " fill-opacity="1" fill-rule="nonzero"/><path fill="#ffc05a" d="M 238.53125 215.390625 L 247.316406 215.390625 L 247.316406 253.78125 L 238.53125 253.78125 Z M 238.53125 215.390625 " fill-opacity="1" fill-rule="nonzero"/><path fill="#e15c63" d="M 231.707031 164.699219 C 231.707031 168.492188 231.136719 172.152344 230.097656 175.601562 L 200.546875 160.570312 L 200.546875 127.664062 C 218.269531 130.855469 231.707031 146.21875 231.707031 164.699219 Z M 231.707031 164.699219 " fill-opacity="1" fill-rule="nonzero"/><path fill="#8bcb8f" d="M 220.785156 226.308594 L 229.570312 226.308594 L 229.570312 253.78125 L 220.785156 253.78125 Z M 220.785156 226.308594 " fill-opacity="1" fill-rule="nonzero"/><path fill="#c2e6f9" d="M 163.933594 158.988281 C 163.554688 160.84375 163.375 162.738281 163.375 164.699219 C 163.375 170.449219 165.003906 175.84375 167.835938 180.40625 L 193.722656 164.699219 L 193.722656 194.789062 C 205.21875 194.789062 215.207031 188.464844 220.363281 179.15625 L 193.722656 164.699219 L 193.722656 134.605469 C 187.453125 134.605469 181.621094 136.488281 176.785156 139.726562 C 170.214844 144.125 165.46875 150.992188 163.933594 158.988281 Z M 193.722656 119.425781 C 218.960938 119.425781 239.40625 139.695312 239.40625 164.699219 C 239.40625 189.714844 218.960938 209.984375 193.722656 209.984375 C 168.496094 209.984375 148.050781 189.714844 148.050781 164.699219 C 148.050781 139.695312 168.496094 119.425781 193.722656 119.425781 Z M 230.097656 175.601562 C 231.136719 172.152344 231.707031 168.492188 231.707031 164.699219 C 231.707031 146.21875 218.269531 130.855469 200.546875 127.664062 L 200.546875 160.570312 Z M 186.746094 201.699219 L 187.664062 176.113281 L 165.921875 190.332031 C 171.347656 196.113281 178.578125 200.195312 186.746094 201.699219 Z M 186.746094 201.699219 " fill-opacity="1" fill-rule="nonzero"/><path fill="#8bcb8f" d="M 193.722656 164.699219 L 220.363281 179.15625 C 215.207031 188.464844 205.21875 194.789062 193.722656 194.789062 Z M 193.722656 164.699219 " fill-opacity="1" fill-rule="nonzero"/><path fill="#52a7d7" d="M 203.035156 243.328125 L 211.804688 243.328125 L 211.804688 253.78125 L 203.035156 253.78125 Z M 203.035156 243.328125 " fill-opacity="1" fill-rule="nonzero"/><path fill="#f48ca7" d="M 194.054688 217.289062 L 194.054688 253.78125 L 185.269531 253.78125 L 185.269531 216.609375 C 188.175781 217.078125 191.113281 217.304688 194.054688 217.289062 Z M 194.054688 217.289062 " fill-opacity="1" fill-rule="nonzero"/><path fill="#ffa25a" d="M 193.722656 134.605469 L 193.722656 164.699219 L 176.785156 139.726562 C 181.621094 136.488281 187.453125 134.605469 193.722656 134.605469 Z M 193.722656 134.605469 " fill-opacity="1" fill-rule="nonzero"/><path fill="#52a7d7" d="M 176.785156 139.726562 L 193.722656 164.699219 L 163.933594 158.988281 C 165.46875 150.992188 170.214844 144.125 176.785156 139.726562 Z M 176.785156 139.726562 " fill-opacity="1" fill-rule="nonzero"/><path fill="#f48ca7" d="M 193.722656 164.699219 L 167.835938 180.40625 C 165.003906 175.84375 163.375 170.449219 163.375 164.699219 C 163.375 162.738281 163.554688 160.84375 163.933594 158.988281 Z M 193.722656 164.699219 " fill-opacity="1" fill-rule="nonzero"/><path fill="#ffc05a" d="M 187.664062 176.113281 L 186.746094 201.699219 C 178.578125 200.195312 171.347656 196.113281 165.921875 190.332031 Z M 187.664062 176.113281 " fill-opacity="1" fill-rule="nonzero"/><path fill="#ffa25a" d="M 167.519531 226.308594 L 176.304688 226.308594 L 176.304688 253.78125 L 167.519531 253.78125 Z M 167.519531 226.308594 " fill-opacity="1" fill-rule="nonzero"/><path fill="#93b2b8" d="M 161.523438 206.492188 L 153.039062 215.828125 L 146.679688 210.164062 L 155.164062 200.828125 C 156.128906 201.835938 157.152344 202.832031 158.222656 203.78125 C 159.292969 204.726562 160.390625 205.648438 161.523438 206.492188 Z M 161.523438 206.492188 " fill-opacity="1" fill-rule="nonzero"/><path fill="#e15c63" d="M 154.242188 216.914062 C 155.628906 218.148438 155.734375 220.253906 154.484375 221.625 L 144.660156 232.441406 L 117.191406 262.695312 C 115.351562 264.714844 112.820312 265.722656 110.289062 265.722656 C 108.089844 265.722656 105.859375 264.957031 104.097656 263.375 C 100.285156 259.96875 99.984375 254.15625 103.402344 250.390625 L 140.710938 209.320312 C 141.738281 208.191406 143.347656 207.921875 144.660156 208.554688 C 144.945312 208.6875 145.21875 208.855469 145.472656 209.082031 L 146.679688 210.164062 L 153.039062 215.828125 Z M 154.242188 216.914062 " fill-opacity="1" fill-rule="nonzero"/><path fill="#4d727a" d="M 270.640625 252.273438 L 158.507812 252.273438 C 157.675781 252.273438 157 252.949219 157 253.78125 C 157 254.613281 157.675781 255.285156 158.507812 255.285156 L 270.640625 255.285156 C 271.472656 255.285156 272.148438 254.613281 272.148438 253.78125 C 272.148438 252.949219 271.476562 252.273438 270.640625 252.273438 Z M 270.640625 252.273438 " fill-opacity="1" fill-rule="nonzero"/><path fill="#93b2b8" d="M 265.113281 103.988281 L 175.050781 103.988281 C 174.21875 103.988281 173.542969 103.3125 173.542969 102.484375 C 173.542969 101.652344 174.21875 100.976562 175.050781 100.976562 L 265.113281 100.976562 C 265.945312 100.976562 266.621094 101.652344 266.621094 102.484375 C 266.621094 103.3125 265.945312 103.988281 265.113281 103.988281 Z M 265.113281 103.988281 " fill-opacity="1" fill-rule="nonzero"/><path fill="#93b2b8" d="M 265.113281 122.257812 L 222.878906 122.257812 C 222.046875 122.257812 221.371094 121.582031 221.371094 120.75 C 221.371094 119.917969 222.046875 119.246094 222.878906 119.246094 L 265.113281 119.246094 C 265.945312 119.246094 266.621094 119.917969 266.621094 120.75 C 266.621094 121.582031 265.945312 122.257812 265.113281 122.257812 Z M 265.113281 122.257812 " fill-opacity="1" fill-rule="nonzero"/><path fill="#93b2b8" d="M 265.113281 136.113281 L 237.25 136.113281 C 236.421875 136.113281 235.746094 135.4375 235.746094 134.605469 C 235.746094 133.773438 236.421875 133.101562 237.25 133.101562 L 265.113281 133.101562 C 265.945312 133.101562 266.621094 133.773438 266.621094 134.605469 C 266.621094 135.4375 265.945312 136.113281 265.113281 136.113281 Z M 265.113281 136.113281 " fill-opacity="1" fill-rule="nonzero"/><path fill="#93b2b8" d="M 265.113281 147.890625 L 243.488281 147.890625 C 242.660156 147.890625 241.976562 147.214844 241.976562 146.382812 C 241.976562 145.550781 242.644531 144.878906 243.476562 144.878906 L 265.113281 144.878906 C 265.945312 144.878906 266.621094 145.550781 266.621094 146.382812 C 266.621094 147.214844 265.945312 147.890625 265.113281 147.890625 Z M 265.113281 147.890625 " fill-opacity="1" fill-rule="nonzero"/><path fill="#93b2b8" d="M 265.113281 159.652344 L 246.367188 159.652344 C 245.535156 159.652344 244.859375 158.976562 244.859375 158.144531 C 244.859375 157.316406 245.535156 156.640625 246.367188 156.640625 L 265.113281 156.640625 C 265.945312 156.640625 266.621094 157.316406 266.621094 158.144531 C 266.621094 158.976562 265.945312 159.652344 265.113281 159.652344 Z M 265.113281 159.652344 " fill-opacity="1" fill-rule="nonzero"/><path fill="#93b2b8" d="M 265.113281 171.414062 L 246.535156 171.414062 C 245.703125 171.414062 245.027344 170.738281 245.027344 169.910156 C 245.027344 169.078125 245.703125 168.402344 246.535156 168.402344 L 265.113281 168.402344 C 265.945312 168.402344 266.621094 169.078125 266.621094 169.910156 C 266.621094 170.738281 265.945312 171.414062 265.113281 171.414062 Z M 265.113281 171.414062 " fill-opacity="1" fill-rule="nonzero"/><path fill="#4d727a" d="M 246.371094 158.144531 C 248.222656 172.769531 243.898438 188.085938 233.15625 199.894531 C 222.757812 211.339844 208.457031 217.199219 194.054688 217.289062 C 191.113281 217.304688 188.175781 217.078125 185.269531 216.609375 C 176.84375 215.285156 168.679688 211.914062 161.523438 206.492188 C 160.390625 205.648438 159.292969 204.726562 158.222656 203.78125 C 157.152344 202.832031 156.128906 201.835938 155.164062 200.828125 C 150.582031 196.023438 147.070312 190.554688 144.660156 184.742188 C 139.371094 171.988281 139.3125 157.511719 144.675781 144.652344 C 146.921875 139.230469 150.128906 134.109375 154.304688 129.515625 C 172.085938 109.9375 201.332031 106.683594 222.878906 120.75 C 225.09375 122.183594 227.21875 123.808594 229.238281 125.617188 C 232.3125 128.355469 234.992188 131.382812 237.253906 134.605469 C 239.859375 138.3125 241.941406 142.273438 243.476562 146.382812 L 243.492188 146.382812 C 244.90625 150.195312 245.871094 154.140625 246.371094 158.144531 Z M 239.40625 164.699219 C 239.40625 139.695312 218.960938 119.425781 193.722656 119.425781 C 168.496094 119.425781 148.050781 139.695312 148.050781 164.699219 C 148.050781 189.714844 168.496094 209.984375 193.722656 209.984375 C 218.960938 209.984375 239.40625 189.714844 239.40625 164.699219 Z M 239.40625 164.699219 " fill-opacity="1" fill-rule="nonzero"/></svg>